<svg
    xmlns="http://www.w3.org/2000/svg"
    xmlns:xlink="http://www.w3.org/1999/xlink"
    width="181.938"
    height="40.226"
    viewBox="0 0 181.938 40.226"
    >
    <defs>
        <clipPath id="clip-path">
        <rect
            id="Rectangle_46"
            data-name="Rectangle 46"
            width="181.938"
            height="40.226"
            fill="none"
        />
        </clipPath>
    </defs>
    <g
        id="Group_53"
        data-name="Group 53"
        clip-path="url(#clip-path)"
    >
        <path
        id="Path_415"
        data-name="Path 415"
        d="M159.428,9.9a4.313,4.313,0,0,1-.852,2.983,2.089,2.089,0,0,1-.991.594,7.011,7.011,0,0,1-1.749.166H154.6V6.192h1.241a6.958,6.958,0,0,1,1.749.166,2.092,2.092,0,0,1,.991.594,4.249,4.249,0,0,1,.852,2.945m3.938-.189a7.411,7.411,0,0,0-2.134-5.744A5.232,5.232,0,0,0,159.268,2.8a8.9,8.9,0,0,0-2.73-.362H150.8V27.7h3.8V17.4h2.015L159.7,27.7h3.982l-3.454-11.439c2.083-1.174,3.141-3.376,3.141-6.549"
        transform="translate(-68.834 -1.113)"
        fill="#ececec"
        />
        <path
        id="Path_416"
        data-name="Path 416"
        d="M94.871,17.827,91.732,2.511l-.015-.073H86.252V27.7h3.623V9.995l3.854,17.631.016.071h2.182l3.9-17.709V27.7h3.623V2.438H98.059Z"
        transform="translate(-39.371 -1.113)"
        fill="#ececec"
        />
        <path
        id="Path_417"
        data-name="Path 417"
        d="M126.438,22.085a3.99,3.99,0,0,1-.139-.665c-.035-.262-.058-.563-.069-.9s-.018-.741-.018-1.26V10.241a19.027,19.027,0,0,1,.088-2.178,3.822,3.822,0,0,1,.359-1.217,2.235,2.235,0,0,1,.9-.961,2.758,2.758,0,0,1,2.678,0,2.238,2.238,0,0,1,.893.958,5.02,5.02,0,0,1,.223.573,4.369,4.369,0,0,1,.138.648,8.857,8.857,0,0,1,.069.9c.011.35.016.781.016,1.281v9.022c0,.5-.005.929-.016,1.279a8.818,8.818,0,0,1-.069.9,4.256,4.256,0,0,1-.138.646,4.727,4.727,0,0,1-.222.571,2.243,2.243,0,0,1-.894.963,2.772,2.772,0,0,1-2.679,0,2.242,2.242,0,0,1-.894-.961,4.264,4.264,0,0,1-.221-.573m7.583-17.893a6.6,6.6,0,0,0-10.259,0,7.841,7.841,0,0,0-1.029,2.471,16.05,16.05,0,0,0-.318,3.518v9.136a16.021,16.021,0,0,0,.318,3.517,7.822,7.822,0,0,0,1.031,2.475,6.6,6.6,0,0,0,10.259,0,7.8,7.8,0,0,0,1.029-2.473,15.97,15.97,0,0,0,.319-3.517V10.183a16,16,0,0,0-.319-3.518,7.8,7.8,0,0,0-1.031-2.473"
        transform="translate(-55.878 -0.797)"
        fill="#ececec"
        />
        <path
        id="Path_418"
        data-name="Path 418"
        d="M178.961,27.7h10.78V23.943h-6.982V16.38h5.159V12.625h-5.159V6.192h6.982V2.437h-10.78Z"
        transform="translate(-81.69 -1.112)"
        fill="#ececec"
        />
        <path
        id="Path_419"
        data-name="Path 419"
        d="M297.516,16.614a8.918,8.918,0,0,0-.6-.723q-.317-.339-.7-.736c-.263-.266-.571-.553-.918-.852s-.772-.665-1.266-1.094c-.647-.514-1.123-.9-1.454-1.184s-.609-.515-.808-.679a3.613,3.613,0,0,1-.444-.42c-.1-.126-.226-.276-.369-.454a3.673,3.673,0,0,1-.959-2.463,2.541,2.541,0,0,1,.641-1.764,2.1,2.1,0,0,1,1.618-.7c1.442,0,2.45,1.228,3,3.65l.022.1,3.65-1.146-.02-.083c-1.012-4.187-3.25-6.31-6.65-6.31a6.633,6.633,0,0,0-2.49.458A5.692,5.692,0,0,0,287.8,3.5a6.115,6.115,0,0,0-1.282,1.989,6.688,6.688,0,0,0-.463,2.52,7.107,7.107,0,0,0,1.315,4.234c.21.3.406.561.584.777a9.284,9.284,0,0,0,.673.723c.262.257.625.585,1.109,1s1.164.986,1.93,1.619c.678.577,1.242,1.083,1.681,1.5a8.765,8.765,0,0,1,1.058,1.191,3.758,3.758,0,0,1,.549,1.048,3.638,3.638,0,0,1,.153,1.083,2.84,2.84,0,0,1-.711,2.009,2.433,2.433,0,0,1-1.863.761c-1.9,0-3.088-1.491-3.523-4.433l-.014-.107-3.653,1.147.013.078c.729,4.715,3.143,7.106,7.177,7.106a7.119,7.119,0,0,0,2.649-.476,5.983,5.983,0,0,0,2.048-1.339,6.171,6.171,0,0,0,1.335-2.044,6.958,6.958,0,0,0,.481-2.633,7.832,7.832,0,0,0-1.528-4.65"
        transform="translate(-130.249 -0.797)"
        fill="#ececec"
        />
        <path
        id="Path_420"
        data-name="Path 420"
        d="M211.848,12.889h-4.973V2.438h-3.8V27.7h3.8V16.643h4.973V27.7h3.8V2.438h-3.8Z"
        transform="translate(-92.697 -1.113)"
        fill="#ececec"
        />
        <path
        id="Path_421"
        data-name="Path 421"
        d="M314.9,2.437V27.7h10.78V23.942H318.7V16.38h5.158V12.626H318.7V6.191h6.983V2.437Z"
        transform="translate(-143.742 -1.113)"
        fill="#ececec"
        />
        <path
        id="Path_422"
        data-name="Path 422"
        d="M239.62,7.417a4.225,4.225,0,0,1,.138.647,8.27,8.27,0,0,1,.068.9c.013.341.018.759.018,1.279v9.022c0,.519-.005.938-.018,1.28a8.215,8.215,0,0,1-.068.9,4.126,4.126,0,0,1-.138.646,4.411,4.411,0,0,1-.223.571,2.234,2.234,0,0,1-.894.963,2.77,2.77,0,0,1-2.678,0,2.234,2.234,0,0,1-.893-.961,4.354,4.354,0,0,1-.223-.573,4.2,4.2,0,0,1-.139-.664c-.034-.272-.057-.574-.069-.9-.011-.344-.017-.768-.017-1.26V10.241a19.436,19.436,0,0,1,.086-2.178,3.828,3.828,0,0,1,.361-1.217,2.233,2.233,0,0,1,.894-.961,2.759,2.759,0,0,1,2.678,0,2.229,2.229,0,0,1,.893.959,4.529,4.529,0,0,1,.224.573m2.673-3.224a6.6,6.6,0,0,0-10.259,0A7.866,7.866,0,0,0,231,6.665a16.058,16.058,0,0,0-.317,3.518v9.136A16.039,16.039,0,0,0,231,22.836a7.837,7.837,0,0,0,1.031,2.475,6.6,6.6,0,0,0,10.259,0,7.82,7.82,0,0,0,1.029-2.473,16,16,0,0,0,.319-3.517V10.183a16.014,16.014,0,0,0-.319-3.518,7.824,7.824,0,0,0-1.031-2.473"
        transform="translate(-105.301 -0.797)"
        fill="#ececec"
        />
        <path
        id="Path_423"
        data-name="Path 423"
        d="M267.725,20.192a6.366,6.366,0,0,1-.583,3.171,2.034,2.034,0,0,1-1.887.917,2.087,2.087,0,0,1-1.921-.917,6.353,6.353,0,0,1-.583-3.171V2.437h-3.8V19.522a18.831,18.831,0,0,0,.3,3.779,6.732,6.732,0,0,0,1.049,2.477,5.653,5.653,0,0,0,4.952,2.294,6.719,6.719,0,0,0,2.863-.591,5.144,5.144,0,0,0,2.054-1.7,6.754,6.754,0,0,0,1.05-2.477,18.908,18.908,0,0,0,.3-3.779V2.437h-3.8Z"
        transform="translate(-118.203 -1.113)"
        fill="#ececec"
        />
        <path
        id="Path_424"
        data-name="Path 424"
        d="M98.1,63.592a1.411,1.411,0,0,1-.047-.233c-.012-.091-.02-.2-.024-.318s-.007-.273-.007-.455V59.322a6.83,6.83,0,0,1,.032-.781,1.271,1.271,0,0,1,.123-.421.757.757,0,0,1,.3-.323.937.937,0,0,1,.908,0,.745.745,0,0,1,.3.32,1.8,1.8,0,0,1,.079.2,1.445,1.445,0,0,1,.047.224,3.121,3.121,0,0,1,.024.319c0,.127.007.28.007.46v3.264c0,.182,0,.335-.007.462a3.134,3.134,0,0,1-.024.319,1.347,1.347,0,0,1-.048.224,1.536,1.536,0,0,1-.076.2.766.766,0,0,1-.3.323.946.946,0,0,1-.91,0,.759.759,0,0,1-.3-.321,1.478,1.478,0,0,1-.079-.2m2.737-6.49a2.444,2.444,0,0,0-3.808,0,2.839,2.839,0,0,0-.381.913,5.823,5.823,0,0,0-.118,1.285v3.306a5.833,5.833,0,0,0,.118,1.287,2.86,2.86,0,0,0,.381.914,2.445,2.445,0,0,0,3.81,0,2.886,2.886,0,0,0,.38-.913,5.885,5.885,0,0,0,.117-1.287V59.3a5.867,5.867,0,0,0-.117-1.285,2.876,2.876,0,0,0-.382-.914"
        transform="translate(-44.062 -25.65)"
        fill="#ececec"
        />
        <path
        id="Path_425"
        data-name="Path 425"
        d="M107.431,56.441V65.7h4.095V64.222h-2.6V56.441Z"
        transform="translate(-49.039 -25.764)"
        fill="#ececec"
        />
        <path
        id="Path_426"
        data-name="Path 426"
        d="M89.161,62.319c-.008.316-.017.544-.024.684a2.177,2.177,0,0,1-.051.361c-.118.582-.4.865-.849.865a.77.77,0,0,1-.461-.141.8.8,0,0,1-.289-.383,2.444,2.444,0,0,1-.1-.514,7.651,7.651,0,0,1-.032-.81V59.35c0-.181,0-.337.007-.47a2.517,2.517,0,0,1,.029-.334,1.806,1.806,0,0,1,.062-.254,1.2,1.2,0,0,1,.1-.215.694.694,0,0,1,.692-.4c.605,0,.9.487.9,1.487v.281h1.491v-.363A3.269,3.269,0,0,0,90,56.951a2.174,2.174,0,0,0-1.765-.76,2.535,2.535,0,0,0-1.094.226,1.941,1.941,0,0,0-.771.656,2.607,2.607,0,0,0-.257.451,2.57,2.57,0,0,0-.158.514,4.541,4.541,0,0,0-.078.674c-.013.254-.019.567-.019.929v2.544c0,.335.007.629.019.874a5.839,5.839,0,0,0,.065.657,2.594,2.594,0,0,0,.131.514,3.26,3.26,0,0,0,.2.435,2,2,0,0,0,.8.783,2.45,2.45,0,0,0,1.173.27,2.16,2.16,0,0,0,1.811-.79,3.709,3.709,0,0,0,.6-2.294v-.4h-1.5Z"
        transform="translate(-39.193 -25.65)"
        fill="#ececec"
        />
        <path
        id="Path_427"
        data-name="Path 427"
        d="M136.919,62.237H138v.277a3.021,3.021,0,0,1-.217,1.339.694.694,0,0,1-.669.378.784.784,0,0,1-.5-.165.92.92,0,0,1-.3-.453,2.989,2.989,0,0,1-.1-.57c-.021-.213-.032-.513-.032-.893V59.364c0-.19,0-.351.007-.482a2.453,2.453,0,0,1,.029-.328c.018-.093.035-.177.057-.252a.925.925,0,0,1,.089-.213.622.622,0,0,1,.273-.3.85.85,0,0,1,.418-.1.722.722,0,0,1,.689.368,2.819,2.819,0,0,1,.223,1.307v.092h1.491v-.092a7.463,7.463,0,0,0-.065-1.066,2.791,2.791,0,0,0-.222-.778,2.122,2.122,0,0,0-.816-.983,2.381,2.381,0,0,0-1.288-.337,2.537,2.537,0,0,0-1.086.226,1.927,1.927,0,0,0-.777.653,2.27,2.27,0,0,0-.259.441,2.566,2.566,0,0,0-.157.521,4.684,4.684,0,0,0-.078.679c-.012.253-.02.557-.02.93v2.5c0,.326.008.6.02.835a6.446,6.446,0,0,0,.064.642,3.941,3.941,0,0,0,.118.521,3.128,3.128,0,0,0,.177.466,1.983,1.983,0,0,0,.744.818,2.055,2.055,0,0,0,1.089.292,1.85,1.85,0,0,0,.935-.223,2.138,2.138,0,0,0,.62-.576l.207.663h.831V60.9h-2.57Z"
        transform="translate(-61.479 -25.65)"
        fill="#ececec"
        />
        <path
        id="Path_428"
        data-name="Path 428"
        d="M116.605,56.441V65.7H120.7V64.222h-2.6V56.441Z"
        transform="translate(-53.226 -25.764)"
        fill="#ececec"
        />
        <path
        id="Path_429"
        data-name="Path 429"
        d="M145.541,56.441V65.7h4.018V64.222h-2.526V61.6H148.9V60.127h-1.866v-2.21h2.526V56.441Z"
        transform="translate(-66.435 -25.764)"
        fill="#ececec"
        />
        <path
        id="Path_430"
        data-name="Path 430"
        d="M125.779,56.441V65.7H129.8V64.222h-2.526V61.6h1.866V60.127h-1.866v-2.21H129.8V56.441Z"
        transform="translate(-57.414 -25.764)"
        fill="#ececec"
        />
        <path
        id="Path_431"
        data-name="Path 431"
        d="M38.115,21.817c.091.069.183.134.313.228A18.439,18.439,0,0,0,6.113,8.051a18.214,18.214,0,0,0-3.771,6.984,18.44,18.44,0,0,0-.481,7.926A14.868,14.868,0,0,0,2.9,26.676c.3-.3.6-.606.9-.909s.591-.611.888-.917.607-.633.918-.941a10.77,10.77,0,0,1,.906-.9c.093.072.176.133.254.2l3,2.506,3.65,3.049c.08.066.159.132.24.195a.069.069,0,0,0,.112-.045c.005-.1.008-.207.008-.309V20.174c0-.089,0-.18,0-.27,0-.107-.039-.14-.136-.136a1.224,1.224,0,0,0-.155.013c-.29.048-.3.008-.3-.277V15.1c0-.078,0-.154,0-.232a.149.149,0,0,1,.136-.158c.051-.011.1-.02.152-.027q1.855-.271,3.71-.539,2.66-.386,5.316-.772c1.543-.223,3.086-.44,4.628-.668.238-.035.261-.023.257.227v4.486c0,.078,0,.155,0,.233a.118.118,0,0,1-.113.128c-.178.029-.357.055-.534.085a.129.129,0,0,0-.122.125c-.005.09,0,.18,0,.271q0,3-.01,5.995,0,1.414,0,2.824c0,.066-.045.162.083.19.121-.127.247-.255.369-.388q1.362-1.479,2.722-2.96,2.174-2.363,4.348-4.723c.224-.244.183-.273.49-.04q1.754,1.335,3.51,2.665m-5.977,2.8a1.87,1.87,0,0,0,1.808,1.419,2.453,2.453,0,0,0,2.188-1.076,1.955,1.955,0,0,0,.392-1.227,1.806,1.806,0,0,0-1.383-1.782,2.5,2.5,0,0,0-2.926,1.492,1.969,1.969,0,0,0-.08,1.175m4.827,2.663a.222.222,0,0,0,.2-.155c.018-.048.045-.094.059-.143.045-.154.179-.283.121-.463a1.025,1.025,0,0,0-.456.021c-.65.091-1.3.189-1.948.281-.777.11-1.555.215-2.331.326-.636.091-1.272.194-1.908.286-.981.142-1.963.274-2.942.425-.172.027-.4-.033-.506.121s-.03.377-.029.569a.437.437,0,0,0,.042.122l.761-.1,2.445-.352,2.369-.34,2.482-.359c.548-.079,1.095-.159,1.643-.234M24.288,17.055c.142-.147.286-.293.427-.441a1.757,1.757,0,0,0,.115-.139,1.029,1.029,0,0,0-.118-.091A7.913,7.913,0,0,0,19.6,15.7a10.166,10.166,0,0,0-4.176,1.911.829.829,0,0,0-.283.264,1.509,1.509,0,0,0,.335.312c.208.179.212.178.419.024A10.045,10.045,0,0,1,17,17.5a9.14,9.14,0,0,1,3.332-1.159,6.3,6.3,0,0,1,3.4.478,1.6,1.6,0,0,0,.56.235M16.024,22.5c0,.588-.039.478.5.433.026,0,.051-.006.077-.01q1.719-.254,3.436-.508,1.949-.283,3.9-.559c.192-.028.211-.045.211-.246,0-.592,0-1.185,0-1.777s-.006-1.159,0-1.739a.358.358,0,0,0-.232-.392,1.071,1.071,0,0,1-.1-.051,5.787,5.787,0,0,0-4.127-.47,9.463,9.463,0,0,0-3.425,1.635.559.559,0,0,0-.247.517c.01,1.056,0,2.112,0,3.168m-9.88,7.349a2.45,2.45,0,0,0,2.408-2.114,1.7,1.7,0,0,0-1.185-1.859,2.026,2.026,0,0,0-1.4.054,2.332,2.332,0,0,0-1.594,2.047A1.633,1.633,0,0,0,5.1,29.548a1.706,1.706,0,0,0,1.04.3M5.4,31.241c.083.115.179.221.257.339a.383.383,0,0,0,.426.173c1.069-.162,2.139-.314,3.208-.471,1.159-.17,2.317-.348,3.476-.509.444-.062.385-.051.39-.358,0-.147,0-.211,0-.276-.006-.13-.039-.161-.163-.146-.153.017-.306.045-.459.067q-1.452.209-2.9.419-1.508.219-3.018.44c-.382.055-.764.109-1.147.166-.1.015-.128.071-.065.156M28,31.711v5.007a1.513,1.513,0,0,0,.581-.255.142.142,0,0,0,.041-.1c0-.1,0-.207,0-.309V31.72c0-.09,0-.18,0-.271.007-.172.026-.192.2-.218l2.6-.378c1.275-.184,2.549-.372,3.827-.545a.446.446,0,0,0,.361-.241c.184-.31.376-.616.56-.927a.3.3,0,0,0,.071-.226,1.25,1.25,0,0,0-.186,0q-1.4.2-2.793.4l-3.022.44-2.409.351-2.908.421-2.371.34q-1.473.214-2.945.431l-2.448.357Q15.982,31.83,14.8,32q-1.205.176-2.41.351-1.452.214-2.907.422L7.222,33.1c-.036,0-.086.008-.086.057a.148.148,0,0,0,.038.1c.311.291.626.576.937.866a.342.342,0,0,0,.32.073c.879-.132,1.76-.258,2.639-.385.217-.031.434-.065.651-.094.121-.016.159.021.164.148,0,.077,0,.155,0,.233v2.089c0,.1,0,.206,0,.309,0,.05,0,.11.05.139a1.232,1.232,0,0,0,.575.228V34.021c0-.091,0-.181,0-.271.005-.117.038-.151.161-.177l.076-.012,2.717-.392c1.148-.165,2.3-.326,3.443-.494,1.327-.193,2.652-.391,3.977-.586q2.372-.346,4.744-.687c.387-.055.366-.061.366.309m12.225-11.6A20.113,20.113,0,1,1,20.113,0,20.137,20.137,0,0,1,40.226,20.113M12.544,16.459c0-.5,0-1,0-1.493,0-.114-.051-.146-.179-.129-.191.026-.38.053-.571.083a.242.242,0,0,0-.171.072,7.158,7.158,0,0,0,.922,1.466m15.752-3.9c-.022.118.063.195.111.279q1.454,2.548,2.913,5.092c.045.078.091.155.14.231a.125.125,0,0,0,.167.046,1.063,1.063,0,0,0,.141-.064.08.08,0,0,0,.039-.1c-.028-.072-.059-.143-.093-.212Q30.505,15.418,29.292,13a1.657,1.657,0,0,0-.326-.559l-.645.088c-.009,0-.018.014-.026.022M23.4,5.6c.092-.469.169-.857.246-1.245a.226.226,0,0,0-.08-.207c-.238-.254-.475-.509-.714-.76-.3-.31-.184-.275-.63-.239l-.077.009-4.021.537c-.229.03-.459.062-.688.1-.072.01-.124.056-.094.132.138.347.282.692.424,1.037a.136.136,0,0,0,.157.084c.268-.041.534-.083.8-.121,1.006-.146,2.014-.29,3.02-.44.464-.069.463-.075.806.266l.85.848m4.615,8.389v3.866c0,.1,0,.206,0,.309s-.058.16-.158.175c-.153.022-.307.041-.459.067-.125.02-.155.056-.164.173,0,.038,0,.078,0,.116q0,3.4,0,6.8c0,.046-.017.1.051.129.084-.011.123-.083.173-.138q1.7-1.847,3.407-3.694a.653.653,0,0,0,.191-.481q-.009-1.178,0-2.358a.911.911,0,0,0-.14-.472Q29.552,16.12,28.2,13.756c-.036-.061-.049-.149-.186-.179Zm.606-2.187c-5.615.849-11.186,1.655-16.755,2.477-.075.012-.152.012-.225.016-.069-.121.031-.173.078-.236q1.186-1.576,2.38-3.146c1.254-1.655,2.512-3.306,3.758-4.966a.781.781,0,0,1,.572-.328c1.021-.139,2.04-.291,3.06-.444.5-.075.5-.079.873.29q2.982,2.982,5.962,5.964a1.016,1.016,0,0,1,.3.372"
        transform="translate(0 0)"
        fill="#ececec"
        />
    </g>
</svg>