<svg xmlns="http://www.w3.org/2000/svg" xmlns:xlink="http://www.w3.org/1999/xlink" width="334.733" height="74.008" viewBox="0 0 334.733 74.008">
  <defs>
    <clipPath id="clip-path">
      <rect id="Rectangle_46" data-name="Rectangle 46" width="334.733" height="74.008" transform="translate(0 0)" fill="none"/>
    </clipPath>
  </defs>
  <g id="Group_54" data-name="Group 54" transform="translate(0 0)">
    <g id="Group_53" data-name="Group 53" clip-path="url(#clip-path)">
      <path id="Path_415" data-name="Path 415" d="M166.676,16.163c0,2.526-.527,4.373-1.568,5.488a3.843,3.843,0,0,1-1.823,1.092,12.9,12.9,0,0,1-3.217.306h-2.283V9.346h2.283a12.8,12.8,0,0,1,3.217.306,3.848,3.848,0,0,1,1.823,1.092c1.041,1.115,1.568,2.939,1.568,5.419m7.246-.347c0-4.64-1.321-8.2-3.926-10.567A9.625,9.625,0,0,0,166.383,3.1a16.375,16.375,0,0,0-5.023-.666H150.8V48.911h6.988V29.958h3.707l5.68,18.953H174.5l-6.354-21.046c3.832-2.16,5.778-6.212,5.778-12.049" fill="#ececec"/>
      <path id="Path_416" data-name="Path 416" d="M102.11,30.752,96.334,2.573l-.028-.135H86.252V48.91h6.665V16.342l7.09,32.437.029.131h4.015l7.183-32.581V48.91H117.9V2.438h-9.925Z" fill="#ececec"/>
      <path id="Path_417" data-name="Path 417" d="M129.816,39.166a7.338,7.338,0,0,1-.255-1.224c-.064-.482-.107-1.036-.127-1.649s-.033-1.364-.033-2.319v-16.6a35.012,35.012,0,0,1,.161-4.008,7.031,7.031,0,0,1,.661-2.239A4.113,4.113,0,0,1,131.87,9.36a5.075,5.075,0,0,1,4.927,0,4.117,4.117,0,0,1,1.643,1.763,9.236,9.236,0,0,1,.411,1.055,8.041,8.041,0,0,1,.253,1.192,16.306,16.306,0,0,1,.127,1.649c.02.644.03,1.436.03,2.356v16.6c0,.918-.01,1.71-.03,2.353a16.233,16.233,0,0,1-.127,1.65,7.833,7.833,0,0,1-.253,1.189,8.7,8.7,0,0,1-.409,1.051,4.127,4.127,0,0,1-1.645,1.771,5.1,5.1,0,0,1-4.929,0,4.126,4.126,0,0,1-1.645-1.768,7.844,7.844,0,0,1-.407-1.054M143.767,6.247c-2-2.987-5.177-4.5-9.435-4.5s-7.432,1.514-9.439,4.5A14.425,14.425,0,0,0,123,10.8a29.53,29.53,0,0,0-.585,6.472V34.076A29.476,29.476,0,0,0,123,40.547a14.39,14.39,0,0,0,1.9,4.553c2,2.986,5.178,4.5,9.436,4.5s7.433-1.514,9.438-4.5a14.341,14.341,0,0,0,1.893-4.55,29.381,29.381,0,0,0,.587-6.471V17.268a29.435,29.435,0,0,0-.587-6.472,14.348,14.348,0,0,0-1.9-4.549" fill="#ececec"/>
      <path id="Path_418" data-name="Path 418" d="M178.961,48.911h19.834V42H185.949V28.09h9.491V21.182h-9.491V9.346h12.846V2.437H178.961Z" fill="#ececec"/>
      <path id="Path_419" data-name="Path 419" d="M307.741,29.1a16.416,16.416,0,0,0-1.108-1.331q-.584-.624-1.293-1.355c-.484-.49-1.051-1.018-1.689-1.567s-1.421-1.224-2.329-2.013c-1.191-.946-2.066-1.659-2.676-2.179s-1.12-.947-1.487-1.25a6.647,6.647,0,0,1-.817-.773c-.192-.232-.416-.507-.679-.836a6.758,6.758,0,0,1-1.765-4.531,4.676,4.676,0,0,1,1.179-3.246,3.866,3.866,0,0,1,2.977-1.3c2.653,0,4.508,2.26,5.516,6.715l.04.179,6.716-2.108-.037-.153c-1.862-7.7-5.979-11.61-12.235-11.61a12.2,12.2,0,0,0-4.582.843,10.473,10.473,0,0,0-3.61,2.392,11.25,11.25,0,0,0-2.358,3.66,12.3,12.3,0,0,0-.852,4.636,13.076,13.076,0,0,0,2.419,7.789c.387.551.747,1.033,1.074,1.429a17.078,17.078,0,0,0,1.238,1.331c.482.473,1.15,1.077,2.041,1.843.913.783,2.142,1.814,3.551,2.979,1.247,1.062,2.286,1.993,3.092,2.766a16.126,16.126,0,0,1,1.947,2.192,6.913,6.913,0,0,1,1.01,1.928,6.694,6.694,0,0,1,.281,1.993,5.226,5.226,0,0,1-1.309,3.7,4.477,4.477,0,0,1-3.427,1.4c-3.5,0-5.681-2.743-6.482-8.156l-.026-.2-6.72,2.11.023.144C286.7,45.2,291.147,49.6,298.569,49.6a13.1,13.1,0,0,0,4.873-.876,11.008,11.008,0,0,0,3.768-2.464,11.353,11.353,0,0,0,2.457-3.761,12.8,12.8,0,0,0,.885-4.844,14.409,14.409,0,0,0-2.811-8.555" fill="#ececec"/>
      <path id="Path_420" data-name="Path 420" d="M219.215,21.665h-9.149V2.438h-6.99V48.91h6.99V28.572h9.149V48.91H226.2V2.438h-6.988Z" fill="#ececec"/>
      <path id="Path_421" data-name="Path 421" d="M314.9,2.437V48.909h19.833V42H321.887V28.09h9.49V21.183h-9.49V9.344h12.847V2.437Z" fill="#ececec"/>
      <path id="Path_422" data-name="Path 422" d="M247.122,12.179a7.774,7.774,0,0,1,.253,1.191,15.227,15.227,0,0,1,.126,1.651c.023.627.033,1.4.033,2.354v16.6c0,.954-.01,1.725-.033,2.355a15.125,15.125,0,0,1-.126,1.648,7.593,7.593,0,0,1-.253,1.189,8.121,8.121,0,0,1-.41,1.051,4.111,4.111,0,0,1-1.645,1.771,5.1,5.1,0,0,1-4.927,0A4.109,4.109,0,0,1,238.5,40.22a8.017,8.017,0,0,1-.411-1.054,7.733,7.733,0,0,1-.255-1.222c-.062-.5-.1-1.056-.127-1.651-.021-.632-.031-1.413-.031-2.319v-16.6a35.759,35.759,0,0,1,.158-4.008,7.043,7.043,0,0,1,.664-2.239A4.108,4.108,0,0,1,240.14,9.36a5.075,5.075,0,0,1,4.927,0,4.1,4.1,0,0,1,1.643,1.765,8.341,8.341,0,0,1,.412,1.054m4.917-5.932c-2.005-2.987-5.179-4.5-9.435-4.5s-7.432,1.514-9.439,4.5a14.473,14.473,0,0,0-1.894,4.546,29.543,29.543,0,0,0-.584,6.472V34.076a29.508,29.508,0,0,0,.584,6.471,14.418,14.418,0,0,0,1.9,4.553c2,2.986,5.176,4.5,9.436,4.5s7.432-1.514,9.438-4.5a14.387,14.387,0,0,0,1.893-4.55,29.43,29.43,0,0,0,.586-6.471V17.268a29.465,29.465,0,0,0-.586-6.472,14.4,14.4,0,0,0-1.9-4.549" fill="#ececec"/>
      <path id="Path_423" data-name="Path 423" d="M275.092,35.1c0,2.725-.36,4.687-1.072,5.834a3.742,3.742,0,0,1-3.472,1.687,3.84,3.84,0,0,1-3.534-1.687c-.713-1.145-1.073-3.107-1.073-5.834V2.437h-6.988V33.871a34.645,34.645,0,0,0,.554,6.952,12.386,12.386,0,0,0,1.93,4.557c1.96,2.8,5.026,4.22,9.111,4.22a12.361,12.361,0,0,0,5.268-1.087A9.463,9.463,0,0,0,279.6,45.38a12.428,12.428,0,0,0,1.931-4.557,34.789,34.789,0,0,0,.552-6.952V2.437h-6.986Z" fill="#ececec"/>
      <path id="Path_424" data-name="Path 424" d="M99.417,69.807a2.6,2.6,0,0,1-.087-.428c-.023-.167-.036-.36-.044-.585s-.012-.5-.012-.837V61.952a12.565,12.565,0,0,1,.058-1.437,2.338,2.338,0,0,1,.227-.775,1.392,1.392,0,0,1,.555-.6,1.724,1.724,0,0,1,1.671,0,1.37,1.37,0,0,1,.553.589,3.321,3.321,0,0,1,.145.371,2.657,2.657,0,0,1,.087.413,5.746,5.746,0,0,1,.044.587c.007.234.012.515.012.847v6.005c0,.335,0,.617-.012.85a5.769,5.769,0,0,1-.044.587,2.477,2.477,0,0,1-.089.413,2.827,2.827,0,0,1-.14.364,1.409,1.409,0,0,1-.554.6,1.74,1.74,0,0,1-1.674,0,1.4,1.4,0,0,1-.551-.591,2.718,2.718,0,0,1-.145-.368m5.036-11.94a4.5,4.5,0,0,0-7.006,0,5.223,5.223,0,0,0-.7,1.679,10.713,10.713,0,0,0-.217,2.365V68a10.732,10.732,0,0,0,.217,2.367,5.263,5.263,0,0,0,.7,1.681,4.5,4.5,0,0,0,7.009,0,5.309,5.309,0,0,0,.7-1.679A10.827,10.827,0,0,0,105.371,68V61.914a10.8,10.8,0,0,0-.216-2.365,5.291,5.291,0,0,0-.7-1.682" fill="#ececec"/>
      <path id="Path_425" data-name="Path 425" d="M107.431,56.441V73.47h7.534V70.756h-4.789V56.441Z" fill="#ececec"/>
      <path id="Path_426" data-name="Path 426" d="M91.933,67.466c-.015.582-.031,1-.044,1.258a4.007,4.007,0,0,1-.093.665c-.217,1.07-.728,1.592-1.562,1.592a1.416,1.416,0,0,1-.849-.259,1.476,1.476,0,0,1-.532-.705,4.5,4.5,0,0,1-.191-.946,14.077,14.077,0,0,1-.058-1.49V62c0-.333,0-.62.012-.864a4.632,4.632,0,0,1,.054-.615,3.322,3.322,0,0,1,.114-.467,2.212,2.212,0,0,1,.177-.4,1.277,1.277,0,0,1,1.273-.733c1.114,0,1.653.9,1.653,2.736v.517H94.63v-.668a6.014,6.014,0,0,0-1.148-3.924,4,4,0,0,0-3.248-1.4,4.664,4.664,0,0,0-2.013.416A3.57,3.57,0,0,0,86.8,57.814a4.8,4.8,0,0,0-.472.83,4.728,4.728,0,0,0-.29.946,8.353,8.353,0,0,0-.144,1.24c-.023.467-.035,1.043-.035,1.71v4.681c0,.617.012,1.158.035,1.608a10.742,10.742,0,0,0,.12,1.208,4.774,4.774,0,0,0,.241.945,6,6,0,0,0,.372.8,3.67,3.67,0,0,0,1.47,1.441,4.508,4.508,0,0,0,2.158.5,3.975,3.975,0,0,0,3.332-1.454,6.825,6.825,0,0,0,1.112-4.22V67.3H91.938Z" fill="#ececec"/>
      <path id="Path_427" data-name="Path 427" d="M138.8,67.314h1.985v.51a5.557,5.557,0,0,1-.4,2.463,1.277,1.277,0,0,1-1.23.695,1.443,1.443,0,0,1-.911-.3,1.692,1.692,0,0,1-.561-.834,5.5,5.5,0,0,1-.192-1.049c-.038-.392-.058-.943-.058-1.643V62.028c0-.35,0-.646.012-.887a4.512,4.512,0,0,1,.054-.6c.033-.171.064-.326.1-.463a1.7,1.7,0,0,1,.164-.392,1.145,1.145,0,0,1,.5-.561,1.563,1.563,0,0,1,.769-.191,1.329,1.329,0,0,1,1.267.677,5.187,5.187,0,0,1,.411,2.4v.17h2.743v-.17a13.732,13.732,0,0,0-.12-1.962,5.135,5.135,0,0,0-.408-1.431,3.9,3.9,0,0,0-1.5-1.809,4.38,4.38,0,0,0-2.369-.62,4.668,4.668,0,0,0-2,.416,3.546,3.546,0,0,0-1.429,1.2,4.176,4.176,0,0,0-.477.811,4.72,4.72,0,0,0-.289.959,8.62,8.62,0,0,0-.143,1.25c-.023.466-.037,1.025-.037,1.711v4.6c0,.6.014,1.1.037,1.536a11.855,11.855,0,0,0,.118,1.181,7.25,7.25,0,0,0,.217.958,5.758,5.758,0,0,0,.326.857,3.648,3.648,0,0,0,1.368,1.5,3.78,3.78,0,0,0,2,.538,3.4,3.4,0,0,0,1.721-.411,3.934,3.934,0,0,0,1.141-1.059l.38,1.22h1.529V64.847H138.8Z" fill="#ececec"/>
      <path id="Path_428" data-name="Path 428" d="M116.605,56.441V73.47h7.534V70.756H119.35V56.441Z" fill="#ececec"/>
      <path id="Path_429" data-name="Path 429" d="M145.541,56.441V73.47h7.393V70.756h-4.648V65.935h3.434V63.222h-3.434V59.156h4.648V56.441Z" fill="#ececec"/>
      <path id="Path_430" data-name="Path 430" d="M125.779,56.441V73.47h7.393V70.756h-4.648V65.935h3.434V63.222h-3.434V59.156h4.648V56.441Z" fill="#ececec"/>
      <path id="Path_431" data-name="Path 431" d="M70.124,40.139c.168.127.337.247.576.419A33.923,33.923,0,0,0,11.246,14.812,33.511,33.511,0,0,0,4.308,27.661a33.926,33.926,0,0,0-.885,14.583A27.355,27.355,0,0,0,5.34,49.078c.555-.561,1.1-1.115,1.648-1.673s1.088-1.125,1.634-1.687c.56-.578,1.116-1.165,1.689-1.731a19.816,19.816,0,0,1,1.667-1.649c.171.133.323.245.467.365q2.759,2.3,5.515,4.61,3.357,2.8,6.716,5.61c.147.121.292.242.441.358a.126.126,0,0,0,.206-.082c.01-.189.015-.38.015-.569V37.116c0-.164,0-.332,0-.5-.008-.2-.072-.257-.251-.25a2.251,2.251,0,0,0-.285.024c-.534.089-.554.015-.549-.51V27.773c0-.143,0-.284,0-.426a.274.274,0,0,1,.251-.291c.094-.02.188-.036.28-.049q3.412-.5,6.825-.992,4.893-.711,9.781-1.421c2.838-.41,5.677-.809,8.514-1.229.438-.064.48-.042.472.417v8.254c0,.143,0,.286-.006.428a.218.218,0,0,1-.208.236c-.327.053-.656.1-.983.157a.237.237,0,0,0-.225.23c-.01.166-.009.332-.009.5q-.009,5.514-.018,11.029,0,2.6,0,5.195c0,.121-.083.3.152.349.223-.233.454-.47.678-.714Q52.264,46.723,54.765,44q4-4.347,8-8.69c.412-.448.336-.5.9-.074q3.227,2.457,6.458,4.9m-11,5.143a3.44,3.44,0,0,0,3.327,2.61,4.513,4.513,0,0,0,4.026-1.98,3.6,3.6,0,0,0,.722-2.258,3.323,3.323,0,0,0-2.544-3.278,4.6,4.6,0,0,0-5.384,2.745,3.622,3.622,0,0,0-.147,2.161m8.88,4.9a.408.408,0,0,0,.363-.286c.033-.089.082-.173.109-.263.082-.283.329-.521.222-.852a1.886,1.886,0,0,0-.839.039c-1.2.168-2.39.347-3.584.517-1.429.2-2.861.4-4.289.6-1.171.168-2.34.357-3.51.526-1.805.262-3.611.5-5.412.782-.316.049-.745-.06-.931.223s-.056.693-.054,1.046a.8.8,0,0,0,.077.224c.47-.064.936-.127,1.4-.192q2.249-.324,4.5-.648l4.359-.625,4.567-.66c1.008-.145,2.014-.293,3.023-.431m-23.323-18.8c.262-.27.526-.539.786-.811a3.233,3.233,0,0,0,.212-.255,1.893,1.893,0,0,0-.217-.167,14.559,14.559,0,0,0-9.4-1.254,18.7,18.7,0,0,0-7.683,3.515,1.526,1.526,0,0,0-.521.485,2.777,2.777,0,0,0,.617.574c.383.329.39.327.771.045A18.481,18.481,0,0,1,31.276,32.2a16.817,16.817,0,0,1,6.13-2.132,11.6,11.6,0,0,1,6.248.879,2.95,2.95,0,0,0,1.031.432M29.482,41.4c0,1.081-.071.88.923.8.047,0,.093-.011.141-.018q3.163-.468,6.322-.934,3.585-.521,7.171-1.029c.353-.051.388-.083.389-.453,0-1.09,0-2.18,0-3.269,0-1.067-.011-2.133.008-3.2a.659.659,0,0,0-.426-.722,1.97,1.97,0,0,1-.19-.094,10.648,10.648,0,0,0-7.592-.865,17.41,17.41,0,0,0-6.3,3.008,1.028,1.028,0,0,0-.455.951c.018,1.942.008,3.885.008,5.828M11.3,54.921a4.507,4.507,0,0,0,4.431-3.89,3.121,3.121,0,0,0-2.181-3.42,3.727,3.727,0,0,0-2.579.1,4.29,4.29,0,0,0-2.932,3.766A3,3,0,0,0,9.39,54.362a3.139,3.139,0,0,0,1.914.559M9.927,57.478c.153.211.329.407.472.624a.7.7,0,0,0,.783.319c1.967-.3,3.936-.577,5.9-.867,2.133-.312,4.263-.641,6.4-.937.817-.114.709-.094.717-.658,0-.27,0-.388,0-.507-.011-.24-.071-.3-.3-.269-.281.032-.563.082-.844.123q-2.672.384-5.343.77-2.775.4-5.553.81c-.7.1-1.406.2-2.11.305-.189.028-.235.13-.12.287m41.59.865v9.212a2.783,2.783,0,0,0,1.069-.469.262.262,0,0,0,.076-.187c.009-.189.009-.38.009-.569V58.358c0-.166-.005-.332,0-.5.012-.316.048-.354.372-.4l4.784-.7c2.345-.339,4.69-.684,7.041-1a.821.821,0,0,0,.664-.444c.339-.57.691-1.133,1.03-1.705a.554.554,0,0,0,.131-.415,2.3,2.3,0,0,0-.342,0q-2.568.365-5.138.737l-5.56.809q-2.219.323-4.433.646-2.676.39-5.35.775-2.18.311-4.363.626-2.71.393-5.419.793-2.251.328-4.5.656-2.182.318-4.365.63-2.217.324-4.434.646-2.672.393-5.348.777l-4.153.6c-.067.009-.158.015-.158.1a.272.272,0,0,0,.07.182c.572.535,1.152,1.06,1.723,1.594a.63.63,0,0,0,.589.135c1.618-.243,3.238-.475,4.856-.709.4-.057.8-.12,1.2-.173.223-.029.293.038.3.273.009.142,0,.285,0,.428v3.844c0,.189,0,.379,0,.569,0,.092,0,.2.092.255a2.268,2.268,0,0,0,1.057.419V62.592c0-.167,0-.333.005-.5.01-.215.069-.278.3-.325.048-.009.1-.015.14-.022l5-.722c2.112-.3,4.225-.6,6.335-.908,2.441-.355,4.88-.72,7.317-1.078q4.364-.637,8.728-1.264c.712-.1.673-.113.673.569M74.009,37a37,37,0,1,1-37-37,37.048,37.048,0,0,1,37,37M23.078,30.281c0-.916,0-1.832,0-2.746,0-.209-.094-.268-.329-.237-.351.047-.7.1-1.05.153a.445.445,0,0,0-.315.133,13.169,13.169,0,0,0,1.7,2.7m28.98-7.18c-.04.218.115.358.2.514q2.676,4.688,5.36,9.368c.082.143.167.285.258.425a.23.23,0,0,0,.307.085,1.956,1.956,0,0,0,.259-.118.148.148,0,0,0,.072-.178c-.051-.133-.109-.263-.171-.39q-2.223-4.44-4.455-8.881a3.049,3.049,0,0,0-.6-1.028c-.4.055-.791.107-1.187.162-.017,0-.033.026-.048.041M43.044,10.3c.169-.862.311-1.576.452-2.29a.415.415,0,0,0-.148-.38c-.438-.467-.873-.936-1.314-1.4-.546-.57-.339-.506-1.16-.439-.047,0-.093.01-.141.017l-7.4.988c-.422.056-.845.114-1.266.178-.132.019-.229.1-.173.243.254.638.518,1.273.78,1.908a.25.25,0,0,0,.288.155c.493-.075.983-.152,1.477-.223,1.851-.269,3.7-.534,5.557-.81.853-.127.852-.138,1.482.49.485.483.97.967,1.564,1.561M51.535,25.73v7.113c0,.19-.008.379,0,.568.01.21-.107.294-.291.322-.281.041-.564.076-.844.124-.23.037-.286.1-.3.319,0,.07,0,.143,0,.213q-.008,6.261-.008,12.519c0,.084-.032.193.093.237.155-.021.227-.153.318-.253q3.134-3.4,6.268-6.8a1.2,1.2,0,0,0,.351-.885q-.017-2.167,0-4.338a1.676,1.676,0,0,0-.258-.868q-2.494-4.347-4.987-8.7c-.066-.113-.09-.274-.342-.329Zm1.115-4.024c-10.33,1.562-20.581,3.044-30.827,4.557-.138.022-.28.022-.414.03-.127-.222.057-.319.143-.434q2.182-2.9,4.379-5.788c2.308-3.044,4.622-6.082,6.914-9.136a1.437,1.437,0,0,1,1.053-.6c1.878-.255,3.753-.536,5.629-.816.928-.138.926-.145,1.606.533Q46.619,15.536,52.1,21.022a1.869,1.869,0,0,1,.548.684" fill="#ececec"/>
    </g>
  </g>
</svg>
